<?xml version="1.0" encoding="UTF-8"?><svg xmlns="http://www.w3.org/2000/svg" xmlns:xlink="http://www.w3.org/1999/xlink" fill-opacity="1" color-rendering="auto" color-interpolation="auto" text-rendering="auto" stroke="black" stroke-linecap="square" width="454" stroke-miterlimit="10" shape-rendering="auto" stroke-opacity="1" fill="black" stroke-dasharray="none" font-weight="normal" stroke-width="1" height="384" font-family="'Dialog'" font-style="normal" stroke-linejoin="miter" font-size="12px" stroke-dashoffset="0" image-rendering="auto">
  <!--Generated by ySVG 2.5-->
  <defs id="genericDefs"/>
  <g>
    <defs id="defs1">
      <clipPath clipPathUnits="userSpaceOnUse" id="clipPath1">
        <path d="M0 0 L454 0 L454 384 L0 384 L0 0 Z"/>
      </clipPath>
      <clipPath clipPathUnits="userSpaceOnUse" id="clipPath2">
        <path d="M542 81 L996 81 L996 465 L542 465 L542 81 Z"/>
      </clipPath>
      <clipPath clipPathUnits="userSpaceOnUse" id="clipPath3">
        <path d="M557 96 L557 124 L981 124 L981 96 Z"/>
      </clipPath>
      <clipPath clipPathUnits="userSpaceOnUse" id="clipPath4">
        <path d="M557 261 L557 450 L981 450 L981 261 Z"/>
      </clipPath>
      <clipPath clipPathUnits="userSpaceOnUse" id="clipPath5">
        <path d="M557 296 L557 450 L981 450 L981 296 Z"/>
      </clipPath>
      <clipPath clipPathUnits="userSpaceOnUse" id="clipPath6">
        <path d="M557 329 L557 450 L981 450 L981 329 Z"/>
      </clipPath>
      <clipPath clipPathUnits="userSpaceOnUse" id="clipPath7">
        <path d="M557 368 L557 450 L981 450 L981 368 Z"/>
      </clipPath>
    </defs>
    <g fill="rgb(46,154,254)" text-rendering="geometricPrecision" shape-rendering="geometricPrecision" transform="matrix(1,0,0,1,-542,-81)" stroke="rgb(46,154,254)">
      <rect x="558" width="422" height="352" y="97" clip-path="url(#clipPath2)" stroke="none"/>
    </g>
    <g fill="rgb(65,220,255)" text-rendering="geometricPrecision" shape-rendering="geometricPrecision" transform="matrix(1,0,0,1,-542,-81)" stroke="rgb(65,220,255)">
      <rect x="557" width="1" height="354" y="96" clip-path="url(#clipPath2)" stroke="none"/>
      <rect x="558" width="422" height="1" y="96" clip-path="url(#clipPath2)" stroke="none"/>
      <rect x="558" y="449" clip-path="url(#clipPath2)" fill="rgb(32,107,177)" width="423" height="1" stroke="none"/>
      <rect x="980" y="96" clip-path="url(#clipPath2)" fill="rgb(32,107,177)" width="1" height="353" stroke="none"/>
      <rect x="558" y="97" clip-path="url(#clipPath2)" fill="blue" width="422" height="26" stroke="none"/>
      <rect x="557" y="96" clip-path="url(#clipPath2)" fill="blue" width="1" height="28" stroke="none"/>
      <rect x="558" y="96" clip-path="url(#clipPath2)" fill="blue" width="422" height="1" stroke="none"/>
      <rect x="558" y="123" clip-path="url(#clipPath2)" fill="rgb(0,0,178)" width="423" height="1" stroke="none"/>
      <rect x="980" y="96" clip-path="url(#clipPath2)" fill="rgb(0,0,178)" width="1" height="27" stroke="none"/>
    </g>
    <g stroke-linecap="butt" font-size="13px" transform="matrix(1,0,0,1,-542,-81)" fill="white" text-rendering="geometricPrecision" font-family="sans-serif" shape-rendering="geometricPrecision" stroke="white" font-weight="bold" stroke-miterlimit="1.45">
      <text x="729.2605" xml:space="preserve" y="114.0698" clip-path="url(#clipPath3)" stroke="none">VersaDB API</text>
    </g>
    <g fill="purple" text-rendering="geometricPrecision" shape-rendering="geometricPrecision" transform="matrix(1,0,0,1,-542,-81)" stroke="purple">
      <rect x="558" width="422" height="187" y="262" clip-path="url(#clipPath2)" stroke="none"/>
      <rect x="557" y="261" clip-path="url(#clipPath2)" fill="rgb(182,0,182)" width="1" height="189" stroke="none"/>
      <rect x="558" y="261" clip-path="url(#clipPath2)" fill="rgb(182,0,182)" width="422" height="1" stroke="none"/>
      <rect x="558" y="449" clip-path="url(#clipPath2)" fill="rgb(89,0,89)" width="423" height="1" stroke="none"/>
      <rect x="980" y="261" clip-path="url(#clipPath2)" fill="rgb(89,0,89)" width="1" height="188" stroke="none"/>
    </g>
    <g stroke-linecap="butt" font-size="13px" transform="matrix(1,0,0,1,-542,-81)" fill="white" text-rendering="geometricPrecision" font-family="sans-serif" shape-rendering="geometricPrecision" stroke="white" font-weight="bold" stroke-miterlimit="1.45">
      <text x="733.6118" xml:space="preserve" y="279.0698" clip-path="url(#clipPath4)" stroke="none">Application</text>
    </g>
    <g fill="red" text-rendering="geometricPrecision" shape-rendering="geometricPrecision" transform="matrix(1,0,0,1,-542,-81)" stroke="red">
      <rect x="558" width="422" height="152" y="297" clip-path="url(#clipPath2)" stroke="none"/>
      <rect x="557" width="1" height="154" y="296" clip-path="url(#clipPath2)" stroke="none"/>
      <rect x="558" width="422" height="1" y="296" clip-path="url(#clipPath2)" stroke="none"/>
      <rect x="558" y="449" clip-path="url(#clipPath2)" fill="rgb(178,0,0)" width="423" height="1" stroke="none"/>
      <rect x="980" y="296" clip-path="url(#clipPath2)" fill="rgb(178,0,0)" width="1" height="153" stroke="none"/>
    </g>
    <g stroke-linecap="butt" font-size="13px" transform="matrix(1,0,0,1,-542,-81)" fill="white" text-rendering="geometricPrecision" font-family="sans-serif" shape-rendering="geometricPrecision" stroke="white" font-weight="bold" stroke-miterlimit="1.45">
      <text x="710.481" xml:space="preserve" y="314.0698" clip-path="url(#clipPath5)" stroke="none">VersaDB Fragment</text>
    </g>
    <g fill="rgb(255,102,0)" text-rendering="geometricPrecision" shape-rendering="geometricPrecision" transform="matrix(1,0,0,1,-542,-81)" stroke="rgb(255,102,0)">
      <rect x="558" width="422" height="119" y="330" clip-path="url(#clipPath2)" stroke="none"/>
      <rect x="557" y="329" clip-path="url(#clipPath2)" fill="rgb(255,145,0)" width="1" height="121" stroke="none"/>
      <rect x="558" y="329" clip-path="url(#clipPath2)" fill="rgb(255,145,0)" width="422" height="1" stroke="none"/>
      <rect x="558" y="449" clip-path="url(#clipPath2)" fill="rgb(178,71,0)" width="423" height="1" stroke="none"/>
      <rect x="980" y="329" clip-path="url(#clipPath2)" fill="rgb(178,71,0)" width="1" height="120" stroke="none"/>
    </g>
    <g stroke-linecap="butt" font-size="13px" transform="matrix(1,0,0,1,-542,-81)" fill="white" text-rendering="geometricPrecision" font-family="sans-serif" shape-rendering="geometricPrecision" stroke="white" font-weight="bold" stroke-miterlimit="1.45">
      <text x="712.2837" xml:space="preserve" y="347.0698" clip-path="url(#clipPath6)" stroke="none">Process Fragment</text>
    </g>
    <g fill="green" text-rendering="geometricPrecision" shape-rendering="geometricPrecision" transform="matrix(1,0,0,1,-542,-81)" stroke="green">
      <rect x="558" width="422" height="80" y="369" clip-path="url(#clipPath2)" stroke="none"/>
      <rect x="557" y="368" clip-path="url(#clipPath2)" fill="rgb(0,182,0)" width="1" height="82" stroke="none"/>
      <rect x="558" y="368" clip-path="url(#clipPath2)" fill="rgb(0,182,0)" width="422" height="1" stroke="none"/>
      <rect x="558" y="449" clip-path="url(#clipPath2)" fill="rgb(0,89,0)" width="423" height="1" stroke="none"/>
      <rect x="980" y="368" clip-path="url(#clipPath2)" fill="rgb(0,89,0)" width="1" height="81" stroke="none"/>
    </g>
    <g stroke-linecap="butt" font-size="13px" transform="matrix(1,0,0,1,-542,-81)" fill="white" text-rendering="geometricPrecision" font-family="sans-serif" shape-rendering="geometricPrecision" stroke="white" font-weight="bold" stroke-miterlimit="1.45">
      <text x="706.5105" xml:space="preserve" y="386.0698" clip-path="url(#clipPath7)" stroke="none">Return VersaDB API</text>
    </g>
    <g text-rendering="geometricPrecision" stroke-miterlimit="1.45" shape-rendering="geometricPrecision" transform="matrix(1,0,0,1,-542,-81)" stroke-linecap="butt">
      <path fill="none" d="M769 123.9934 L769 252.9768" clip-path="url(#clipPath2)"/>
      <path d="M769 260.9767 L774 248.9767 L769 251.9767 L764 248.9767 Z" clip-path="url(#clipPath2)" stroke="none"/>
      <path fill="none" d="M769 261.0101 L769 131.9729" clip-path="url(#clipPath2)"/>
      <path d="M769 123.9729 L764 135.9729 L769 132.9729 L774 135.9729 Z" clip-path="url(#clipPath2)" stroke="none"/>
      <path fill="none" d="M702.4898 368.0294 L702.4898 131.983" clip-path="url(#clipPath2)"/>
      <path d="M702.4898 123.983 L697.4898 135.983 L702.4898 132.983 L707.4898 135.983 Z" clip-path="url(#clipPath2)" stroke="none"/>
    </g>
  </g>
</svg>
